<?xml version="1.0" standalone="no"?>
<!DOCTYPE svg PUBLIC "-//W3C//DTD SVG 20010904//EN"
 "http://www.w3.org/TR/2001/REC-SVG-20010904/DTD/svg10.dtd">
<svg version="1.0" xmlns="http://www.w3.org/2000/svg"
 width="197.000000pt" height="197.000000pt" viewBox="0 0 197.000000 197.000000"
 preserveAspectRatio="xMidYMid meet">
<metadata>
Created by potrace 1.14, written by Peter Selinger 2001-2017
</metadata>
<g transform="translate(0.000000,197.000000) scale(0.100000,-0.100000)"
fill="#000000" stroke="none">
<path d="M938 1849 c-48 -7 -76 -21 -488 -242 -41 -22 -104 -55 -140 -74 -79
-42 -139 -104 -163 -168 -15 -43 -17 -85 -15 -394 3 -380 3 -381 67 -454 32
-35 69 -59 246 -152 50 -27 140 -75 200 -107 231 -124 265 -138 334 -139 67
-1 111 17 361 152 52 28 158 85 235 126 156 83 213 132 239 210 23 66 24 674
1 749 -21 73 -73 126 -173 180 -48 26 -112 60 -142 77 -443 238 -469 250 -562
236z m199 -420 c104 -34 129 -46 173 -86 59 -53 81 -92 103 -183 58 -238 47
-312 -63 -433 -61 -67 -181 -160 -234 -182 -82 -34 -228 -12 -380 59 -128 59
-167 119 -208 321 -23 111 -21 201 5 252 35 67 205 226 285 267 46 24 109 35
157 29 22 -3 95 -23 162 -44z"/>
</g>
</svg>
